<svg xmlns="http://www.w3.org/2000/svg" width="23" height="26" viewBox="0 0 23 26">
    <g fill="#172957" fill-rule="nonzero">
        <path d="M8.64 11.52c1.464 0 2.842.364 4.05 1.007a7.92 7.92 0 0 0-4.05 6.913c0 1.297.312 2.52.864 3.6H2.88A2.878 2.878 0 0 1 0 20.16c0-4.77 3.87-8.64 8.64-8.64z"/>
        <circle cx="8.64" cy="4.32" r="4.32"/>
        <path d="M18.256 13.68a.822.822 0 0 1 .825.822v.648c.572.193 1.1.498 1.551.898l.563-.325a.822.822 0 0 1 1.122.3l.616 1.068a.822.822 0 0 1-.3 1.123l-.563.325c.12.59.12 1.199-.001 1.789l.561.324a.822.822 0 0 1 .301 1.123l-.616 1.068a.822.822 0 0 1-1.123.3l-.563-.325a4.49 4.49 0 0 1-1.548.893v.652a.822.822 0 0 1-.824.821h-1.232a.822.822 0 0 1-.824-.821v-.648a4.551 4.551 0 0 1-1.55-.898l-.562.325a.82.82 0 0 1-1.122-.301l-.617-1.068a.822.822 0 0 1 .301-1.123l.563-.325c-.12-.59-.12-1.2 0-1.79l-.561-.325a.822.822 0 0 1-.301-1.122l.616-1.068a.822.822 0 0 1 1.122-.3l.564.324c.451-.397.977-.7 1.547-.89v-.652c0-.454.369-.822.823-.822h1.232zm-.615 3.593a2.16 2.16 0 1 0 0 4.32 2.16 2.16 0 0 0 0-4.32z"/>
    </g>
</svg>
