<svg fill="#000000"  viewBox="0 -7 512 512"  xmlns="http://www.w3.org/2000/svg">
<path d="m125.011719 285.636719c0 5.554687 4.503906 10.058593 10.058593 10.058593h24.566407c5.554687 0 10.058593-4.503906 10.058593-10.058593 0-5.554688-4.503906-10.058594-10.058593-10.058594h-24.566407c-5.554687 0-10.058593 4.503906-10.058593 10.058594zm0 0"/><path d="m156.039062 256.808594c2.574219 0 5.148438-.980469 7.113282-2.945313 3.925781-3.929687 3.925781-10.296875 0-14.226562l-17.371094-17.371094c-3.929688-3.925781-10.296875-3.925781-14.226562 0-3.929688 3.929687-3.929688 10.300781 0 14.226563l17.371093 17.371093c1.964844 1.964844 4.539063 2.945313 7.113281 2.945313zm0 0"/><path d="m148.925781 316.242188-17.371093 17.371093c-3.925782 3.929688-3.925782 10.296875 0 14.226563 1.964843 1.964844 4.539062 2.945312 7.113281 2.945312s5.148437-.984375 7.113281-2.945312l17.371094-17.371094c3.925781-3.929688 3.925781-10.296875 0-14.226562-3.929688-3.925782-10.296875-3.925782-14.226563 0zm0 0"/><path d="m385.292969 285.636719c0-5.554688-4.5-10.058594-10.058594-10.058594h-24.5625c-5.558594 0-10.058594 4.503906-10.058594 10.058594 0 5.554687 4.5 10.058593 10.058594 10.058593h24.5625c5.558594 0 10.058594-4.503906 10.058594-10.058593zm0 0"/><path d="m361.378906 253.863281 17.371094-17.371093c3.929688-3.925782 3.929688-10.296876 0-14.226563-3.929688-3.925781-10.296875-3.925781-14.226562 0l-17.371094 17.371094c-3.925782 3.929687-3.925782 10.296875 0 14.226562 1.964844 1.964844 4.539062 2.945313 7.113281 2.945313s5.152344-.980469 7.113281-2.945313zm0 0"/><path d="m347.15625 316.242188c-3.929688 3.929687-3.929688 10.296874 0 14.226562l17.367188 17.371094c1.964843 1.960937 4.539062 2.945312 7.113281 2.945312s5.148437-.984375 7.113281-2.945312c3.929688-3.929688 3.929688-10.300782 0-14.226563l-17.371094-17.371093c-3.925781-3.925782-10.296875-3.925782-14.222656 0zm0 0"/><path d="m501.941406 430.160156h-27.496094c-5.554687 0-10.058593 4.5-10.058593 10.058594 0 5.554688 4.503906 10.058594 10.058593 10.058594h17.4375v26.96875h-121.808593v-26.96875h24.140625c5.554687 0 10.058594-4.503906 10.058594-10.058594 0-5.558594-4.503907-10.058594-10.058594-10.058594h-24.140625v-53.304687c0-5.558594-4.503907-10.058594-10.058594-10.058594h-44.179687v-124.519531l6.96875-32.550782c4.46875-20.851562 15.757812-40.078124 31.800781-54.132812l33.050781-28.960938 24.46875-21.4375c6.046875-5.300781 9.667969-12.636718 10.199219-20.660156.53125-8.023437-2.097657-15.773437-7.398438-21.820312l-2.84375-3.246094c-10.9375-12.484375-29.992187-13.742188-42.476562-2.800781l-26.671875 23.371093-8.199219 7.183594c.257813-2.613281.394531-5.257812.394531-7.9375 0-43.71875-35.566406-79.285156-79.285156-79.285156s-79.285156 35.566406-79.285156 79.285156c0 2.699219.136718 5.367188.398437 7.996094l-8.589843-7.527344-26.347657-23.085937c-12.484375-10.941407-31.539062-9.683594-42.476562 2.800781l-2.847657 3.246094c-10.9375 12.484375-9.679687 31.539062 2.804688 42.480468l24.140625 21.152344 33.28125 29.160156c16.097656 14.105469 27.40625 33.40625 31.839844 54.347657l6.867187 32.410156v124.53125h-43.644531c-5.554687 0-10.058594 4.503906-10.058594 10.058594v27.289062h-131.867187c-5.554688 0-10.058594 4.503907-10.058594 10.058594v73.105469c0 5.554687 4.503906 10.058594 10.058594 10.058594h491.882812c5.554688 0 10.058594-4.503907 10.058594-10.058594v-47.089844c0-5.558594-4.503906-10.058594-10.058594-10.058594zm-246.207031-114.363281c-5.558594 0-10.0625 4.503906-10.0625 10.058594v40.015625h-29.925781v-114.601563h79.972656v114.601563h-29.925781v-40.015625c0-5.554688-4.503907-10.058594-10.058594-10.058594zm127.128906-244c4.136719-3.628906 10.460938-3.210937 14.085938.929687l2.847656 3.246094c3.625 4.140625 3.210937 10.460938-.929687 14.089844l-17.386719 15.234375-17.210938-17.210937zm-186.1875 7.488281c0-32.625 26.542969-59.167968 59.167969-59.167968s59.164062 26.542968 59.164062 59.167968c0 13.460938-4.515624 25.882813-12.117187 35.835938l-17.742187 15.550781c-8.644532 4.949219-18.652344 7.777344-29.304688 7.777344-10.730469 0-20.800781-2.867188-29.484375-7.882813l-17.4375-15.28125c-7.675781-9.976562-12.246094-22.464844-12.246094-36zm-84.847656-3.3125 2.847656-3.246094c1.96875-2.25 4.734375-3.398437 7.511719-3.398437 2.335938 0 4.683594.8125 6.574219 2.46875l18.265625 16.003906-17.207032 17.210938-17.0625-14.949219c-4.140624-3.628906-4.558593-9.949219-.929687-14.089844zm58.351563 64.402344-25.195313-22.078125 17.207031-17.207031 32.132813 28.152344c14.546875 17.882812 36.722656 29.324218 61.519531 29.324218 24.882812 0 47.125-11.523437 61.667969-29.511718l31.59375-27.679688 17.207031 17.207031-24.96875 21.882813c-19.277344 16.890625-32.847656 39.992187-38.210938 65.050781l-5.492187 25.636719h-83.804687l-5.394532-25.46875c-5.328125-25.160156-18.914062-48.355469-38.261718-65.308594zm-150.0625 283.886719h121.808593v52.984375h-121.808593zm141.925781-37.347657h187.914062v90.332032h-187.914062zm0 0"/><path d="m258.539062 401.734375c-.949218 0-1.8125.171875-2.5.605469l-11.398437 6.90625c-1.726563 1.035156-2.503906 2.761718-2.503906 4.574218 0 2.679688 1.726562 5.355469 4.230469 5.355469.605468 0 1.382812-.171875 2.160156-.691406l2.503906-1.554687v43.945312c0 2.761719 3.367188 4.144531 6.734375 4.144531s6.734375-1.382812 6.734375-4.144531v-54.910156c0-2.589844-3.195312-4.230469-5.960938-4.230469zm0 0"/><path d="m431.433594 449.816406.21875.066406c.964844.289063 1.9375.425782 2.898437.425782 4.324219 0 8.320313-2.808594 9.628907-7.164063 1.597656-5.320312-1.417969-10.929687-6.738282-12.53125l-.21875-.0625c-5.320312-1.597656-10.929687 1.417969-12.53125 6.738281-1.597656 5.320313 1.421875 10.929688 6.742188 12.527344zm0 0"/><path d="m258.324219 276.039062-.21875-.066406c-5.320313-1.601562-10.929688 1.410156-12.53125 6.730469-1.601563 5.320313 1.410156 10.929687 6.730469 12.53125l.21875.066406c.96875.292969 1.945312.429688 2.902343.429688 4.324219 0 8.320313-2.808594 9.628907-7.160157 1.601562-5.320312-1.410157-10.929687-6.730469-12.53125zm0 0"/></svg>