<svg xmlns="http://www.w3.org/2000/svg" width="18" height="18" viewBox="0 0 18 18">
    <g fill="#FFF" fill-rule="nonzero">
        <path d="M14.455 17.011h-.546v-1.516c0-.274-.244-.495-.545-.495H4.636c-.3 0-.545.221-.545.495v1.516h-.546c-.301 0-.545.221-.545.494 0 .274.244.495.545.495h10.91c.301 0 .545-.221.545-.495 0-.273-.244-.494-.545-.494zM16.418 0H1.582C.71 0 0 .723 0 1.611v.818C0 3.755.448 5.055 1.26 6.09A5.743 5.743 0 0 0 3.935 7.99l.56.19a5.27 5.27 0 0 0 2.889 2.3v.836a.533.533 0 0 1-.528.537c-.872 0-1.582.722-1.582 1.61V14h7.454v-.537c0-.889-.71-1.611-1.582-1.611a.533.533 0 0 1-.528-.537v-.836a5.271 5.271 0 0 0 2.889-2.3l.56-.19a5.743 5.743 0 0 0 2.673-1.899A5.953 5.953 0 0 0 18 2.43V1.61C18 .723 17.29 0 16.418 0zM2.085 5.42a4.857 4.857 0 0 1-1.03-2.99V1.61c0-.296.237-.537.527-.537h1.637l.537 4.92c.031.283.088.558.161.828a4.69 4.69 0 0 1-1.832-1.403zm9.388-.821l-.85.823.2 1.16a.542.542 0 0 1-.206.525.519.519 0 0 1-.554.046L9 6.597l-1.063.556a.52.52 0 0 1-.554-.046.54.54 0 0 1-.206-.524l.2-1.16-.85-.824a.546.546 0 0 1-.139-.553.531.531 0 0 1 .428-.368l1.186-.172.527-1.063c.18-.362.763-.362.942 0l.527 1.063 1.186.172c.2.029.366.172.428.368.06.196.007.41-.139.553zm5.472-2.17a4.857 4.857 0 0 1-1.03 2.99 4.69 4.69 0 0 1-1.832 1.403c.073-.27.13-.545.16-.829l.538-4.919h1.637c.29 0 .527.24.527.537v.818z"/>
        <path d="M9.19 4.4L9 4l-.19.4a.554.554 0 0 1-.414.316L8 4.776l.278.282a.612.612 0 0 1 .162.527L8.372 6l.376-.206a.523.523 0 0 1 .504 0L9.628 6l-.068-.415a.612.612 0 0 1 .162-.527L10 4.776l-.396-.06a.554.554 0 0 1-.415-.317z"/>
    </g>
</svg>
