<svg xmlns="http://www.w3.org/2000/svg" width="84" height="29" viewBox="0 0 84 29">
    <g fill="#FFF" fill-rule="nonzero">
        <path d="M10.238 28.164a16.927 16.927 0 0 1-1.49-.241 11.157 11.157 0 0 1-7.036-4.997A14.765 14.765 0 0 1 .668 20.78c-.527-1.453-.767-3.187-.63-4.556.376-3.789 2.494-7.061 5.736-8.862a10.671 10.671 0 0 1 3.418-1.23c.39-.073.534-.08 2.17-.09l1.753-.013v3.285H11.81c-1.723 0-2.25.069-3.259.427-2.257.801-4.06 2.693-4.726 4.96-.622 2.116-.367 4.286.723 6.159 1.78 3.057 5.495 4.467 8.848 3.355a7.546 7.546 0 0 0 4.428-3.905c.29-.59.483-1.169.638-1.906l.113-.535.01-8.934L18.591 0H21.87v8.882c-.001 8.846-.01 9.549-.122 10.257-.148.935-.645 2.297-1.204 3.306a11.159 11.159 0 0 1-7.752 5.567c-.854.153-1.862.214-2.554.152z"/>
        <path d="M10.305 23.27c-2.864-.417-5.084-2.717-5.419-5.613-.051-.444-.023-1.345.055-1.752.189-.987.6-1.935 1.172-2.709A7.794 7.794 0 0 1 7.38 11.92a6.63 6.63 0 0 1 2.639-1.182c.3-.064.499-.074 1.771-.088l1.433-.016v3.394l-1.38.013c-1.312.013-1.393.017-1.643.093-1.054.32-1.82 1.072-2.167 2.125-.093.282-.099.337-.099.901 0 .564.006.62.099.902.207.628.53 1.113 1.017 1.524.809.683 1.99.89 3.022.529.848-.296 1.57-1.015 1.882-1.875.193-.531.184-.047.184-9.495V0l1.679.01 1.679.008V8.66c0 6.84-.01 8.715-.045 8.997-.305 2.397-1.795 4.352-3.981 5.222-1.001.399-2.144.54-3.165.391z" opacity=".519"/>
        <path d="M56.538 14.248c.362 0 .694.054.998.162.303.108.578.25.826.424a4.1 4.1 0 0 1 .674.595c.201.222.38.446.538.674l.341-1.059.144-.354a.63.63 0 0 1 .123-.201.326.326 0 0 1 .162-.088c.064-.014.154-.022.27-.022h1.304c.064 0 .14.009.228.027a.436.436 0 0 1 .227.122.56.56 0 0 1 .175.219.705.705 0 0 1 .053.28v9.859a.78.78 0 0 1-.053.284.437.437 0 0 1-.1.155l-.075.06a.436.436 0 0 1-.227.122 1.183 1.183 0 0 1-.228.026h-1.723a.773.773 0 0 1-.297-.048.46.46 0 0 1-.184-.136.788.788 0 0 1-.118-.214l-.1-.276-.255-.656-.334.329-.182.174a4.72 4.72 0 0 1-.616.495 3.69 3.69 0 0 1-.73.38 2.296 2.296 0 0 1-.84.153 5.654 5.654 0 0 1-2.891-.774 5.605 5.605 0 0 1-1.151-.892 5.7 5.7 0 0 1-1.46-2.537 5.853 5.853 0 0 1-.202-1.544 5.7 5.7 0 0 1 .446-2.262 5.622 5.622 0 0 1 3.027-3.036 5.65 5.65 0 0 1 2.23-.44zm20.777 0c.361 0 .694.054.997.162.303.108.579.25.827.424a4.1 4.1 0 0 1 .673.595c.202.222.38.446.538.674l.342-1.059.144-.354a.63.63 0 0 1 .122-.201.326.326 0 0 1 .162-.088c.064-.014.155-.022.271-.022h1.304c.064 0 .14.009.227.027a.436.436 0 0 1 .228.122.56.56 0 0 1 .175.219.705.705 0 0 1 .052.28v9.859a.78.78 0 0 1-.052.284.437.437 0 0 1-.101.155l-.074.06a.436.436 0 0 1-.228.122 1.183 1.183 0 0 1-.227.026H80.97a.773.773 0 0 1-.297-.048.46.46 0 0 1-.184-.136.788.788 0 0 1-.118-.214l-.1-.276-.254-.656-.334.329-.182.174a4.72 4.72 0 0 1-.617.495 3.69 3.69 0 0 1-.73.38 2.296 2.296 0 0 1-.84.153 5.654 5.654 0 0 1-2.891-.774 5.605 5.605 0 0 1-1.15-.892 5.7 5.7 0 0 1-1.46-2.537 5.853 5.853 0 0 1-.203-1.544 5.7 5.7 0 0 1 .446-2.262 5.622 5.622 0 0 1 3.027-3.036 5.65 5.65 0 0 1 2.23-.44zm-46.75 0c.315 0 .597.023.845.07.248.047.482.115.704.206.222.09.442.205.66.345.22.14.457.303.713.49.403.216.479.537.228.962l-.796 1.356a.718.718 0 0 1-.429.324c-.17.04-.353.015-.551-.079a2.766 2.766 0 0 0-.766-.547 2.1 2.1 0 0 0-.887-.179 1.71 1.71 0 0 0-.6.096 1.597 1.597 0 0 0-.468.272c-.14.116-.27.256-.393.42a7.285 7.285 0 0 0-.368.542v6.333c0 .222-.054.39-.162.503-.107.114-.287.171-.538.171H25.79c-.455 0-.682-.225-.682-.674V15.07c0-.099.022-.194.065-.284a.62.62 0 0 1 .162-.214c.152-.1.31-.149.473-.149h1.32c.111 0 .199.02.263.061.064.041.118.094.162.158l.061.103.106.238.076.146.365.939c.175-.193.342-.395.503-.608.16-.213.33-.41.512-.59.18-.182.382-.33.603-.447.222-.117.484-.175.788-.175zm7.253.175c.07 0 .145.016.227.048a.774.774 0 0 1 .227.14.91.91 0 0 1 .18.214c.05.082.074.175.074.28v9.754c0 .222-.061.39-.184.503-.122.114-.297.171-.524.171h-2.004c-.431 0-.647-.225-.647-.674v-9.754c0-.186.052-.347.157-.48.105-.135.269-.202.49-.202h2.004zm4.759 0c.151 0 .284.04.398.123a.65.65 0 0 1 .24.35l.575 1.824.952 2.955.21.631c.084.248.147.424.188.53l1.854-5.94c.076-.187.162-.313.258-.377.097-.064.232-.096.407-.096h2.3c.17 0 .298.02.386.061.087.041.146.097.175.166.029.07.035.15.017.241-.017.09-.046.185-.087.284l-4.164 9.982a1.07 1.07 0 0 1-.228.267c-.087.073-.218.109-.393.109h-1.041c-.234 0-.398-.034-.495-.1a.597.597 0 0 1-.214-.276l-4.033-9.868c-.117-.239-.138-.443-.065-.612.072-.17.246-.254.52-.254h2.24zm25.631-3.097c.216 0 .36.063.433.188.073.126.11.29.11.495l-.01 2.755h1.462c.186 0 .338.056.455.166.116.111.175.277.175.5v1.687c0 .245-.059.425-.175.538a.624.624 0 0 1-.455.171h-1.461l.009 7.033c0 .222-.065.39-.193.503-.128.114-.306.171-.534.171h-1.977c-.449 0-.673-.225-.673-.674l-.009-7.033h-.639c-.449 0-.673-.236-.673-.709V15.43c0-.443.224-.665.673-.665h.64l.008-2.073c0-.18.06-.316.18-.407.119-.09.29-.176.51-.258l1.987-.691.042-.007.115-.002zm-11.696 5.87a2.378 2.378 0 0 0-1.837.831 2.754 2.754 0 0 0-.512.893c-.12.338-.18.694-.18 1.067 0 .385.06.745.18 1.08.12.335.29.626.512.87a2.43 2.43 0 0 0 1.837.797 2.782 2.782 0 0 0 1.964-.796c.248-.245.442-.536.582-.87.14-.336.21-.696.21-1.081a2.827 2.827 0 0 0-.792-1.96 2.757 2.757 0 0 0-.875-.608 2.656 2.656 0 0 0-1.089-.223zm20.777 0a2.378 2.378 0 0 0-1.838.831 2.754 2.754 0 0 0-.511.893c-.12.338-.18.694-.18 1.067 0 .385.06.745.18 1.08.12.335.29.626.511.87a2.43 2.43 0 0 0 1.838.797 2.782 2.782 0 0 0 1.964-.796c.247-.245.441-.536.581-.87.14-.336.21-.696.21-1.081a2.827 2.827 0 0 0-.792-1.96 2.757 2.757 0 0 0-.874-.608 2.656 2.656 0 0 0-1.09-.223zm-39.445-7.19c.204 0 .369.05.494.152s.188.276.188.52v1.707c0 .07-.016.146-.048.227a.968.968 0 0 1-.136.236.739.739 0 0 1-.214.188.552.552 0 0 1-.284.075h-2.03c-.431 0-.647-.242-.647-.726v-1.706c0-.245.052-.419.157-.52.105-.103.269-.154.49-.154h2.03z"/>
    </g>
</svg>
