<svg xmlns="http://www.w3.org/2000/svg" width="15" height="21" viewBox="0 0 15 21">
    <g fill="#364DCE" fill-rule="nonzero">
        <path d="M7.336 15.52a.79.79 0 0 0 0 1.577.79.79 0 0 0 0-1.578z"/>
        <path d="M7.336 12.102a4.19 4.19 0 0 0-2.91 1.172l1.015.29-.698 2.144h.697a1.992 1.992 0 0 1 1.896-1.389c.888 0 1.641.585 1.896 1.39h.697l-.698-2.144 1.015-.29a4.192 4.192 0 0 0-2.91-1.173zM5.44 16.908H4.352l-.312.957-.652-.107a4.219 4.219 0 0 0 3.348 2.714v-2.268a1.998 1.998 0 0 1-1.296-1.296z"/>
        <path d="M14.574 12.963L12.886 8.79a1.589 1.589 0 0 0-1.479-.998H3.265c-.654 0-1.234.392-1.48.998L.099 12.963a1.34 1.34 0 0 0 .38 1.53l2.312 1.951.428.07.697-2.138-.623-.178-.746.02-.033-1.199.547-.015a5.4 5.4 0 0 1 8.551 0l.548.015-.033 1.2-.746-.021-.623.178.697 2.138.428-.07 2.312-1.95a1.34 1.34 0 0 0 .38-1.531zM10.32 16.908H9.232a1.998 1.998 0 0 1-1.296 1.296v2.268a4.218 4.218 0 0 0 3.348-2.714l-.652.107-.312-.957z"/>
        <circle cx="7.336" cy="3.596" r="3.596"/>
    </g>
</svg>
