<svg xmlns="http://www.w3.org/2000/svg" width="15" height="21" viewBox="0 0 15 21">
    <g fill="none" fill-rule="nonzero" transform="translate(-1)">
        <path fill="#364DCE" d="M15.574 12.963L13.886 8.79a1.589 1.589 0 0 0-1.479-.998H4.265c-.654 0-1.234.392-1.48.998l-1.687 4.173a1.34 1.34 0 0 0 .38 1.53l2.312 1.951.428.07.697-2.138-.623-.178-.746.02-.033-1.199.547-.015a5.4 5.4 0 0 1 8.551 0l.548.015-.033 1.2-.746-.021-.623.178.697 2.138.428-.07 2.312-1.95a1.34 1.34 0 0 0 .38-1.531z"/>
        <circle cx="8.336" cy="3.596" r="3.596" fill="#364DCE"/>
        <path fill="#FF7761" stroke="#FFF" stroke-width="1.5" d="M9.974 11.98l3.058.467c.28.043.516.235.607.496a.694.694 0 0 1-.179.734l-2.182 2.05.56 2.942a.693.693 0 0 1-.022.345c-.122.375-.539.575-.93.448a.784.784 0 0 1-.154-.068l-2.711-1.402-2.713 1.352a.77.77 0 0 1-.784-.065.724.724 0 0 1-.304-.705l.483-2.929-2.236-2.107a.712.712 0 0 1-.198-.738.713.713 0 0 1 .594-.48l3.047-.39 1.33-2.654a.724.724 0 0 1 .662-.392.77.77 0 0 1 .672.409l1.4 2.688z"/>
    </g>
</svg>
