<?xml version="1.0" encoding="UTF-8" standalone="no"?>
<!-- Created with Inkscape (http://www.inkscape.org/) -->

<svg
   xmlns:dc="http://purl.org/dc/elements/1.1/"
   xmlns:cc="http://creativecommons.org/ns#"
   xmlns:rdf="http://www.w3.org/1999/02/22-rdf-syntax-ns#"
   xmlns:svg="http://www.w3.org/2000/svg"
   xmlns="http://www.w3.org/2000/svg"
   xmlns:sodipodi="http://sodipodi.sourceforge.net/DTD/sodipodi-0.dtd"
   xmlns:inkscape="http://www.inkscape.org/namespaces/inkscape"
   version="1.1"
   id="svg2"
   width="3036"
   height="972"
   viewBox="0 0 3036 972"
   sodipodi:docname="drivata_blue.svg"
   inkscape:version="0.92.2 5c3e80d, 2017-08-06">
  <metadata
     id="metadata8">
    <rdf:RDF>
      <cc:Work
         rdf:about="">
        <dc:format>image/svg+xml</dc:format>
        <dc:type
           rdf:resource="http://purl.org/dc/dcmitype/StillImage" />
        <dc:title></dc:title>
      </cc:Work>
    </rdf:RDF>
  </metadata>
  <defs
     id="defs6" />
  <sodipodi:namedview
     pagecolor="#ffffff"
     bordercolor="#666666"
     borderopacity="1"
     objecttolerance="10"
     gridtolerance="10"
     guidetolerance="10"
     inkscape:pageopacity="0"
     inkscape:pageshadow="2"
     inkscape:window-width="1271"
     inkscape:window-height="634"
     id="namedview4"
     showgrid="false"
     inkscape:zoom="0.10671937"
     inkscape:cx="-215.51849"
     inkscape:cy="486.00002"
     inkscape:window-x="292"
     inkscape:window-y="0"
     inkscape:window-maximized="0"
     inkscape:current-layer="svg2"
     inkscape:pagecheckerboard="true" />
  <path
     style="fill:#38b6ff;fill-opacity:1"
     d="m 359.75925,869.94324 c -8.8832,-0.77771 -32.6421,-4.58154 -42.735,-6.84196 C 232.86055,844.25194 160.14697,793.19779 115.29815,721.46392 105.6846,706.08744 91.412728,677.06306 85.384698,660.62963 70.278188,619.44667 63.397448,570.31007 67.300298,531.48558 78.095608,424.09678 138.8205,331.35421 231.75925,280.31434 c 32.3444,-17.7628 61.1159,-27.99988 98,-34.86904 11.207,-2.08713 15.3209,-2.25741 62.25,-2.57646 l 50.25,-0.34163 v 46.55121 46.55121 h -37.4488 c -49.4191,0 -64.5302,1.95742 -93.4362,12.10329 -64.7187,22.71593 -116.4056,76.34596 -135.50603,140.60027 -17.82464,59.96255 -10.52036,121.46745 20.73173,174.56929 51.0022,86.66005 157.5475,126.60682 253.6593,95.10383 30.9006,-10.12844 59.0472,-26.99302 82.3001,-49.31174 18.5568,-17.81121 32.7203,-37.2712 44.6665,-61.36974 8.2944,-16.73182 13.8506,-33.13777 18.2984,-54.03013 l 3.2285,-15.16507 0.2685,-253.25 0.2684,-253.249999 h 46.9848 46.9848 l -0.015,251.749999 c -0.015,250.75979 -0.2535,270.6631 -3.4788,290.75 -4.2547,26.49885 -18.4842,65.09874 -34.5375,93.68875 -46.5683,82.9355 -128.5323,141.13091 -222.2522,157.8017 -24.4706,4.35281 -53.3795,6.05978 -73.216,4.32316 z M 1937.7592,778.63327 c -14.1428,-2.08444 -20.469,-3.3243 -28,-5.48765 -47.7216,-13.70846 -77.123,-46.50463 -86.0775,-96.01599 -2.2024,-12.17762 -3.0409,-43.971 -1.4721,-55.81777 4.5051,-34.0206 18.7878,-61.64128 43.096,-83.34196 26.8877,-24.00338 62.5497,-36.97714 117.9536,-42.9112 10.6119,-1.1366 30.6556,-1.70759 74.75,-2.12945 l 60.25,-0.57641 v -9.11161 c -0.01,-23.20746 -5.849,-48.55862 -15.6515,-67.92101 -7.3277,-14.47393 -23.5007,-33.18186 -35.3498,-40.89037 -17.1169,-11.13544 -39.0033,-18.18625 -64.7925,-20.87316 -14.7897,-1.54089 -48.6594,-0.68445 -60.7034,1.53498 -35.6024,6.56069 -59.0486,16.21159 -92.8015,38.19885 -7.0408,4.58651 -13.0033,8.33911 -13.25,8.33911 -0.2467,0 -0.4438,-8.4375 -0.438,-18.75 l 0.011,-18.75 11.2394,-6.20951 c 24.6052,-13.59373 44.0821,-21.53024 68.0427,-27.72622 45.7268,-11.82454 98.1838,-11.32905 134.6968,1.27229 22.0543,7.61133 37.2282,16.26179 56.3709,32.1363 23.0013,19.07427 37.8956,50.66879 44.0905,93.52714 3.7152,25.70216 3.7987,29.07607 4.2295,170.75 l 0.4279,140.75 h -17.5515 -17.5514 l -0.258,-59.25 c -0.1544,-35.4781 -0.6133,-58.44757 -1.1437,-57.25 -0.4871,1.1 -2.6754,6.725 -4.8627,12.5 -14.2818,37.70691 -35.8061,69.60326 -58.214,86.26579 -14.1782,10.54288 -39.0561,20.86809 -62.0375,25.74768 -11.2656,2.392 -44.1902,3.58338 -55,1.99017 z m 49,-30.51522 c 30.6071,-4.59044 49.7865,-13.823 69.5677,-33.48842 16.0634,-15.96947 25.9606,-31.92961 38.7574,-62.5 17.0125,-40.64144 23.1749,-69.97407 23.1749,-110.31072 v -20.3632 l -64.75,0.46181 c -68.1935,0.48636 -74.2543,0.8345 -99.5495,5.7183 -19.013,3.67088 -38.4858,11.11633 -51.392,19.64976 -12.3187,8.145 -26.6251,24.11452 -33.1523,37.00635 -14.4057,28.45268 -16.6063,75.01861 -5.0462,106.78022 11.5993,31.86917 41.3749,52.28713 84.39,57.86855 7.6513,0.99279 28.9731,0.5312 38,-0.82265 z m 750.3362,29.98719 c -46.1559,-6.29648 -80.0503,-28.55888 -97.8253,-64.25319 -7.9832,-16.03123 -12.3992,-34.20114 -13.9072,-57.22242 -3.1863,-48.64297 9.78,-85.77392 40.2776,-115.34032 22.5054,-21.81827 52.1457,-35.29914 93.6187,-42.57913 24.2386,-4.25475 41.6825,-5.23078 103.75,-5.8051 l 59.25,-0.54825 v -8.67718 c 0,-23.12521 -5.908,-48.56136 -15.6897,-67.55002 -17.9582,-34.86131 -43.9271,-52.84275 -88.3103,-61.14806 -13.9003,-2.60112 -57.3159,-2.59766 -71.5,0.006 -39.5391,7.25704 -62.3209,17.05645 -104.75,45.05752 l -2.75,1.81486 v -18.8851 -18.8851 l 10.25,-5.68951 c 43.4833,-24.13643 83.0532,-35.2441 130.0264,-36.49969 53.8164,-1.4385 93.3997,11.21086 129.7236,41.45488 27.0808,22.54797 41.0499,57.15634 47.1344,116.7745 0.7458,7.30694 1.2747,57.58289 1.5756,149.75 l 0.453,138.75 h -17.5815 -17.5815 v -59.2 c 0,-32.56 -0.3716,-58.7725 -0.8258,-58.25 -0.4542,0.5225 -3.2107,7.025 -6.1255,14.45 -18.2421,46.46926 -40.3289,76.20305 -68.5487,92.28229 -16.4411,9.36791 -43.7415,18.26233 -63.4738,20.67963 -11.3326,1.38831 -35.2554,1.14178 -47.19,-0.48631 z m 62.6489,-31.486 c 26.0333,-5.54487 43.6218,-14.88696 61.0214,-32.41134 12.4859,-12.57551 18.6923,-21.59651 28.5212,-41.45524 23.4422,-47.36353 32.9373,-85.49487 32.9623,-132.37303 l 0.01,-18.75 -54.75,0.0155 c -30.1125,0.009 -61.5,0.47184 -69.75,1.02963 -67.9655,4.59518 -106.5403,24.28651 -125.4265,64.02652 -8.2629,17.38672 -11.3633,33.07753 -11.3472,57.42838 0.021,31.288 6.5191,53.49724 20.6752,70.65936 13.6254,16.51869 39.0995,29.48807 66.461,33.83664 9.9171,1.57612 40.3572,0.39302 51.6226,-2.00639 z M 822.25925,550.12963 v -218.5 h 16.9889 16.9889 l 0.2611,41.11486 0.2611,41.11485 6.7638,-11.36485 c 26.6148,-44.71948 69.9542,-72.75071 123.5699,-79.92315 11.1028,-1.48529 52.67405,-0.623 63.66625,1.32058 l 7,1.23771 0.2726,18.25 c 0.1499,10.0375 0.015,18.25 -0.2997,18.25 -0.3147,0 -1.7874,-0.62386 -3.2726,-1.38636 -1.4851,-0.7625 -7.4253,-2.61446 -13.2003,-4.11548 -9.2422,-2.40219 -12.938,-2.79053 -30.852,-3.24172 -22.23045,-0.5599 -32.39595,0.34663 -48.14795,4.29368 -24.2989,6.08868 -44.3607,17.54191 -63.4112,36.20115 -10.1007,9.89328 -15.6173,17.37199 -21.5751,29.24873 -11.4859,22.89665 -17.6041,49.95817 -20.0085,88.5 -0.5699,9.13646 -0.9996,67.79828 -1.0016,136.75 v 120.75 h -17 -17 z m 326.99995,0 v -218.5 h 17.5 17.5 v 218.5 218.5 h -17.5 -17.5 z m 345.5209,216.75 c -0.3812,-0.9625 -21.3049,-57.1 -46.4971,-124.75 -25.1922,-67.65 -61.2214,-164.4 -80.0649,-215 -18.8434,-50.6 -34.473,-92.79786 -34.7325,-93.77303 -0.4408,-1.65704 0.7233,-1.75517 17.7933,-1.5 l 18.265,0.27303 46.8101,125.5 c 25.7455,69.025 59.0896,158.4443 74.0981,198.70955 15.0084,40.26525 27.5834,72.89025 27.9445,72.5 0.3611,-0.39025 32.7003,-86.88455 71.8648,-192.20955 39.1646,-105.325 72.3381,-194.5375 73.7189,-198.25 l 2.5106,-6.75 h 18.4911 c 14.3682,0 18.3901,0.27872 18.0377,1.25 -0.2494,0.6875 -36.8414,99.0125 -81.3154,218.5 l -80.8619,217.25 h -22.6846 c -20.6737,0 -22.7461,-0.15513 -23.3777,-1.75 z m 954.0686,0.65009 c -30.1928,-3.18274 -59.848,-16.24336 -78.8833,-34.74155 -11.3808,-11.05959 -20.442,-28.242 -25.75,-48.82841 -6.5078,-25.23989 -6.285,-19.30381 -6.6858,-178.08013 l -0.3643,-144.25 h -25.953 -25.9531 v -15 -15 h 26 26 v -62 -62 h 18 18 v 62 62 h 74 74 v 15 15 h -74.0346 -74.0346 l 0.3661,146.75 c 0.3869,155.05889 0.2325,149.60254 4.7487,167.75 5.2806,21.21868 24.4862,44.05675 45.3088,53.87841 15.8604,7.48112 24.4702,8.62159 65.0872,8.62159 h 32.5584 v 15 15 l -32.25,-0.13302 c -17.7375,-0.0732 -35.8097,-0.50826 -40.1605,-0.96689 z M 359.25925,730.03838 c -81.4256,-11.79686 -144.5698,-76.87609 -154.0961,-158.8183 -1.4609,-12.56597 -0.6567,-38.05143 1.5649,-49.59045 5.3748,-27.91729 17.0373,-54.73497 33.327,-76.63435 8.1762,-10.99175 24.9903,-27.85641 36.037,-36.14523 21.6257,-16.22668 46.6723,-27.38476 75.0406,-33.43003 8.5506,-1.82212 14.1816,-2.10238 50.3766,-2.50732 l 40.75,-0.45589 v 48.0235 48.0235 l -39.25,0.37026 c -37.3206,0.35205 -39.6183,0.48151 -46.7423,2.63355 -29.9558,9.04921 -51.7576,30.32292 -61.6142,60.12201 -2.6385,7.97674 -2.8115,9.54651 -2.8115,25.5 0,15.95349 0.173,17.52326 2.8115,25.5 5.8844,17.78998 15.0852,31.50698 28.9372,43.14089 22.9904,19.30891 56.5597,25.15424 85.923,14.96154 24.1152,-8.37094 44.6576,-28.72909 53.5264,-53.04631 5.4865,-15.04318 5.2199,-1.32419 5.2199,-268.65379 V 71.610231 l 47.75,0.2597 47.75,0.2597 V 316.62963 c 0,193.54804 -0.2684,246.60172 -1.2879,254.58541 -8.6619,67.83171 -51.0286,123.12621 -113.2121,147.75776 -28.4648,11.27521 -60.9688,15.2716 -90,11.06558 z M 1149.2592,185.62963 v -24 h 17.5 17.5 v 24 24 h -17.5 -17.5 z"
     id="path7"
     inkscape:connector-curvature="0"
     inkscape:export-xdpi="156.77"
     inkscape:export-ydpi="156.77" />
</svg>
