<svg xmlns="http://www.w3.org/2000/svg" width="34" height="38" viewBox="0 0 34 38">
    <g fill="#4E515A" fill-rule="nonzero">
        <path fill-opacity=".638" d="M29.385 9.67l1.268-1.268 1.258 1.258 1.554-1.554-4.07-4.07L27.84 5.59 29.1 6.848l-1.268 1.268a16.626 16.626 0 0 0-9.959-4.125V2.197h3.882V0h-9.961v2.197h3.882v1.794A16.65 16.65 0 0 0 4.913 8.867 16.663 16.663 0 0 0 0 20.727c0 4.48 1.745 8.693 4.913 11.861a16.664 16.664 0 0 0 11.86 4.913c4.48 0 8.693-1.745 11.86-4.913a16.663 16.663 0 0 0 4.914-11.86A16.65 16.65 0 0 0 29.385 9.67zM16.773 33.2c-6.877 0-12.471-5.595-12.471-12.472S9.896 8.256 16.773 8.256s12.472 5.595 12.472 12.472-5.595 12.471-12.472 12.471z" opacity=".5"/>
        <path d="M26.989 19.629c-.512-4.79-4.327-8.605-9.117-9.117v2.271h-2.197v-2.27c-4.79.51-8.606 4.326-9.117 9.116h2.27v2.197h-2.27c.511 4.79 4.327 8.606 9.117 9.117v-2.27h2.197v2.27c4.79-.511 8.605-4.327 9.117-9.117h-2.271V19.63h2.27zm-10.216 3a1.904 1.904 0 0 1-1.874-2.222l-2.997-2.997 1.554-1.554 2.996 2.997a1.904 1.904 0 0 1 2.223 1.874 1.904 1.904 0 0 1-1.902 1.903z" opacity=".6"/>
    </g>
</svg>
