<svg xmlns="http://www.w3.org/2000/svg" width="17" height="17" viewBox="0 0 17 17">
    <path fill="#172957" fill-rule="nonzero" d="M8.5 0A8.51 8.51 0 0 1 17 8.5 8.5 8.5 0 1 1 8.5 0zm0 9.917a1.77 1.77 0 0 0-1.77 1.77v1.417a1.77 1.77 0 0 0 3.54 0v-1.416A1.77 1.77 0 0 0 8.5 9.916zm3.542-6.73a.354.354 0 0 0-.333.233l-.018.071-.047.33a2.134 2.134 0 0 1-1.64 1.772l-.162.03-.33.047a.354.354 0 0 0-.07.683l.07.018.33.047a2.134 2.134 0 0 1 1.771 1.641l.03.163.048.328a.354.354 0 0 0 .683.072l.018-.072.048-.33a2.134 2.134 0 0 1 1.64-1.772l.162-.03.328-.047a.354.354 0 0 0 .072-.683l-.072-.018-.328-.047a2.134 2.134 0 0 1-1.772-1.64l-.03-.163-.048-.329a.354.354 0 0 0-.35-.304zm-7.084 0a.354.354 0 0 0-.332.233l-.018.071-.048.33a2.134 2.134 0 0 1-1.64 1.772l-.162.03-.328.047a.354.354 0 0 0-.072.683l.072.018.328.047A2.134 2.134 0 0 1 4.53 8.06l.03.163.048.328a.354.354 0 0 0 .683.072l.018-.072.047-.33a2.134 2.134 0 0 1 1.64-1.772l.162-.03.33-.047a.354.354 0 0 0 .07-.683l-.07-.018-.33-.047a2.134 2.134 0 0 1-1.771-1.64l-.03-.163-.048-.329a.354.354 0 0 0-.35-.304z" opacity=".5"/>
</svg>
