<svg xmlns="http://www.w3.org/2000/svg" width="38" height="30" viewBox="0 0 38 30">
    <g fill="#fff" fill-rule="nonzero">
        <path d="M11.416 0C7.63 0 4.547 3.267 4.547 7.283c0 4.015 3.082 7.282 6.87 7.282 3.786 0 6.868-3.267 6.868-7.282C18.285 3.267 15.204 0 11.416 0zM27.032 1.042h-.047c-1.59.013-3.074.685-4.18 1.89-1.087 1.184-1.678 2.747-1.664 4.4.013 1.652.63 3.204 1.736 4.37 1.115 1.176 2.592 1.821 4.164 1.821h.047c1.59-.013 3.075-.684 4.18-1.89 1.088-1.184 1.679-2.747 1.665-4.4-.028-3.424-2.67-6.19-5.9-6.19zM27.322 14.715h-.57c-2.657 0-5.08 1.01-6.91 2.665.457.352.893.735 1.306 1.148a13.228 13.228 0 0 1 3.871 8.69h12.612v-2.195c0-5.683-4.625-10.308-10.31-10.308zM22.81 27.219a11.057 11.057 0 0 0-4.442-8.187 11.02 11.02 0 0 0-6.608-2.188h-.687C4.957 16.844 0 21.8 0 27.917v1.314h22.832v-1.314c0-.235-.007-.468-.022-.698z"/>
    </g>
</svg>
