<svg xmlns="http://www.w3.org/2000/svg" width="24" height="24" viewBox="0 0 24 24">
    <g fill="#FFF" fill-rule="nonzero" opacity=".8">
        <path d="M17.504 9.5a.32.32 0 0 0 .169-.593 6 6 0 0 0-5.646-.373.5.5 0 0 0-.182.771c.3.37.563.767.787 1.187a.5.5 0 0 0 .7.19A7.93 7.93 0 0 1 17.504 9.5z"/>
        <ellipse cx="14.017" cy="3.5" rx="3.513" ry="3.5"/>
        <path d="M5.993 8a6.014 6.014 0 0 0-5.99 5.333.6.6 0 0 0 .6.667h9.412a.5.5 0 0 0 .44-.264 8.01 8.01 0 0 1 1.025-1.484.5.5 0 0 0 .086-.519A6.022 6.022 0 0 0 5.993 8z"/>
        <ellipse cx="5.517" cy="3.5" rx="3.513" ry="3.5"/>
        <path d="M17.504 11a6.5 6.5 0 1 0 6.5 6.5 6.508 6.508 0 0 0-6.5-6.5zm3.5 7.5h-2a.5.5 0 0 0-.5.5v2a1 1 0 0 1-2 0v-2a.5.5 0 0 0-.5-.5h-2a1 1 0 1 1 0-2h2a.5.5 0 0 0 .5-.5v-2a1 1 0 1 1 2 0v2a.5.5 0 0 0 .5.5h2a1 1 0 0 1 0 2z"/>
    </g>
</svg>
