<svg xmlns="http://www.w3.org/2000/svg" width="59" height="52" viewBox="0 0 59 52">
    <path fill="#CCDC35" fill-rule="nonzero" d="M32.48 0C18.87 0 7.755 10.436 6.608 23.689h-2.04a2.283 2.283 0 0 0-2.225 1.766L.06 35.273a2.284 2.284 0 0 0 2.224 2.8h1.142v2.512a2.283 2.283 0 1 0 4.566 0v-2.512h1.599v2.512a2.283 2.283 0 1 0 4.566 0v-2.512h1.142a2.284 2.284 0 0 0 2.224-2.8l-2.284-9.818a2.283 2.283 0 0 0-2.224-1.766h-1.819C12.34 12.955 21.448 4.566 32.48 4.566c11.802 0 21.404 9.603 21.404 21.406 0 11.032-8.388 20.14-19.121 21.284v-5.268c5.339-1.065 9.375-5.787 9.375-11.434 0-12.1-9.852-19.774-10.271-20.095a2.282 2.282 0 0 0-2.774 0c-.42.32-10.272 7.995-10.272 20.095 0 5.647 4.036 10.37 9.375 11.434v7.672a2.283 2.283 0 0 0 2.284 2.284c14.353 0 25.971-11.616 25.971-25.972C58.451 11.618 46.835 0 32.48 0zM11.202 28.255l1.222 5.252H5.159l1.222-5.252h4.821zm21.278-4.053a2.283 2.283 0 0 0-2.284 2.283v10.782c-2.793-.953-4.808-3.6-4.808-6.713 0-5.853 3-11.235 7.092-15.226 4.1 4 7.091 9.373 7.091 15.226 0 3.112-2.015 5.76-4.808 6.713V26.485a2.283 2.283 0 0 0-2.283-2.283z"/>
</svg>
