<svg xmlns="http://www.w3.org/2000/svg" width="19" height="17" viewBox="0 0 19 17">
    <path fill="#172957" fill-rule="nonzero" d="M17.76 0H1.24C.554 0 0 .544 0 1.214v10.97c.002.318.135.622.368.842.233.22.547.34.871.331h2.478v3.238c0 .15.086.289.222.359s.3.06.427-.026l5.263-3.571h8.132c.684 0 1.239-.544 1.239-1.214V1.214C19 .544 18.445 0 17.76 0zm-2.064 6.476c0 .67-.555 1.214-1.24 1.214-.684 0-1.239-.543-1.239-1.214 0-.67.555-1.214 1.24-1.214.684 0 1.239.544 1.239 1.214zm-12.392 0c0-.67.555-1.214 1.24-1.214.684 0 1.239.544 1.239 1.214 0 .67-.555 1.214-1.24 1.214-.684 0-1.239-.543-1.239-1.214zm4.957 0c0-.67.555-1.214 1.239-1.214s1.24.544 1.24 1.214c0 .67-.556 1.214-1.24 1.214-.684 0-1.24-.543-1.24-1.214z"/>
</svg>
