<svg xmlns="http://www.w3.org/2000/svg" width="18" height="17" viewBox="0 0 18 17">
    <path fill="#FFF" fill-rule="nonzero" d="M1.174 0h15.652c.605 0 1.103.458 1.167 1.046l.007.128v10.565c0 .605-.458 1.103-1.046 1.167l-.128.007H9.122l-4.986 3.452a.391.391 0 0 1-.605-.236l-.01-.086v-3.13H1.175A1.142 1.142 0 0 1 .008 11.91L0 11.78V1.174C0 .569.458.07 1.046.007L1.174 0h15.652zm12.522 7.63H4.304a.587.587 0 0 0-.095 1.167l.095.007h9.392a.587.587 0 0 0 0-1.174zm0-3.521H4.304a.587.587 0 1 0 0 1.174h9.392a.587.587 0 0 0 0-1.174z" opacity=".8"/>
</svg>
