<svg xmlns="http://www.w3.org/2000/svg" width="30" height="30" viewBox="0 0 30 30">
    <g fill="#31353F" fill-rule="evenodd">
        <circle cx="15" cy="15" r="15" opacity=".137"/>
        <path fill-rule="nonzero" d="M12.463 9.545c-1.42 0-2.576 1.226-2.576 2.731 0 1.506 1.156 2.731 2.576 2.731 1.42 0 2.576-1.225 2.576-2.73 0-1.506-1.156-2.732-2.576-2.732zM18.319 9.936H18.3a2.137 2.137 0 0 0-1.567.709 2.398 2.398 0 0 0-.624 1.65c.005.62.236 1.201.65 1.639.419.44.973.683 1.562.683h.018a2.137 2.137 0 0 0 1.568-.71c.407-.443.629-1.03.624-1.649-.01-1.284-1.002-2.322-2.213-2.322zM18.428 15.064h-.214c-.996 0-1.905.378-2.592 1a4.98 4.98 0 0 1 1.557 2.012 4.94 4.94 0 0 1 .385 1.676h4.73v-.823a3.87 3.87 0 0 0-3.866-3.865zM16.736 19.752a4.146 4.146 0 0 0-1.666-3.07 4.133 4.133 0 0 0-2.478-.82h-.258a4.152 4.152 0 0 0-4.152 4.152v.493h8.562v-.493a4.12 4.12 0 0 0-.008-.262z"/>
    </g>
</svg>
