<?xml version="1.0" encoding="iso-8859-1"?>
<!-- Generator: Adobe Illustrator 19.0.0, SVG Export Plug-In . SVG Version: 6.00 Build 0)  -->
<svg version="1.1" id="phone" xmlns="http://www.w3.org/2000/svg" xmlns:xlink="http://www.w3.org/1999/xlink" x="0px" y="0px"
	 viewBox="0 0 469.333 469.333" style="enable-background:new 0 0 469.333 469.333;" xml:space="preserve">
<g>
	<g>
		<g>
			<path d="M459.948,276.031L193.302,9.385C187.274,3.336,178.974,0.003,170.676,0c-8.306-0.003-16.611,3.33-22.635,9.375
				L9.385,148.031C3.333,154.062,0,162.104,0,170.667s3.333,16.604,9.375,22.625l266.656,266.656
				c6.031,6.052,14.073,9.385,22.635,9.385s16.604-3.333,22.625-9.375l138.656-138.656c6.052-6.031,9.385-14.073,9.385-22.635
				S466,282.062,459.948,276.031z M24.448,178.198c-2.01-2-3.115-4.677-3.115-7.531s1.104-5.531,3.125-7.542L163.135,24.448
				c2-2.01,4.677-3.115,7.531-3.115s5.531,1.104,7.542,3.125l232.458,232.458l-153.75,153.75L24.448,178.198z M444.875,306.208
				L306.198,444.885c-4,4.021-11.052,4.031-15.073-0.01L272,425.75L425.75,272l19.125,19.125l0.01,0.01
				c2.01,2,3.115,4.677,3.115,7.531S446.896,304.198,444.875,306.208z"/>
			<path d="M365.792,344.458l-21.333,21.333c-4.167,4.167-4.167,10.917,0,15.083c2.083,2.083,4.813,3.125,7.542,3.125
				c2.729,0,5.458-1.042,7.542-3.125l21.333-21.333c4.167-4.167,4.167-10.917,0-15.083
				C376.708,340.292,369.958,340.292,365.792,344.458z"/>
			<path d="M109.792,88.458l-21.333,21.333c-4.167,4.167-4.167,10.917,0,15.083C90.542,126.958,93.271,128,96,128
				c2.729,0,5.458-1.042,7.542-3.125l21.333-21.333c4.167-4.167,4.167-10.917,0-15.083
				C120.708,84.292,113.958,84.292,109.792,88.458z"/>
			<circle cx="170.667" cy="42.667" r="10.667"/>
			<path d="M146.073,404.313c-17.646-8.823-33.51-20.219-47.167-33.885c-13.667-13.656-25.063-29.521-33.885-47.167
				c-2.635-5.281-9.052-7.406-14.312-4.771c-5.271,2.635-7.406,9.042-4.771,14.313c9.854,19.698,22.594,37.427,37.885,52.708
				c15.281,15.292,33.01,28.031,52.708,37.885c1.531,0.76,3.156,1.125,4.76,1.125c3.917,0,7.677-2.156,9.552-5.896
				C153.479,413.354,151.344,406.948,146.073,404.313z"/>
			<path d="M127,442.448c-21.781-10.885-41.385-24.969-58.271-41.844c-16.875-16.885-30.958-36.49-41.844-58.271
				c-2.646-5.26-9.063-7.406-14.313-4.771c-5.271,2.635-7.406,9.042-4.771,14.313c11.917,23.833,27.344,45.302,45.844,63.813
				c18.51,18.5,39.979,33.927,63.812,45.844c1.531,0.76,3.156,1.125,4.76,1.125c3.917,0,7.677-2.156,9.552-5.896
				C134.406,451.49,132.271,445.083,127,442.448z"/>
			<path d="M342.333,26.885c21.781,10.885,41.385,24.969,58.271,41.844c16.875,16.885,30.958,36.49,41.844,58.271
				c1.875,3.74,5.635,5.896,9.552,5.896c1.604,0,3.229-0.365,4.76-1.125c5.271-2.635,7.406-9.042,4.771-14.313
				c-11.917-23.833-27.344-45.302-45.844-63.813c-18.51-18.5-39.979-33.927-63.813-45.844c-5.271-2.615-11.677-0.5-14.313,4.771
				C334.927,17.844,337.063,24.25,342.333,26.885z"/>
			<path d="M323.26,65.021c17.646,8.823,33.51,20.219,47.167,33.885c13.667,13.656,25.063,29.521,33.885,47.167
				c1.875,3.74,5.635,5.896,9.552,5.896c1.604,0,3.229-0.365,4.76-1.125c5.271-2.635,7.406-9.042,4.771-14.313
				c-9.854-19.698-22.594-37.427-37.885-52.708c-15.281-15.292-33.01-28.031-52.708-37.885c-5.271-2.604-11.677-0.5-14.313,4.771
				C315.854,55.979,317.99,62.385,323.26,65.021z"/>
		</g>
	</g>
</g>
<g>
</g>
<g>
</g>
<g>
</g>
<g>
</g>
<g>
</g>
<g>
</g>
<g>
</g>
<g>
</g>
<g>
</g>
<g>
</g>
<g>
</g>
<g>
</g>
<g>
</g>
<g>
</g>
<g>
</g>
</svg>
