<svg xmlns="http://www.w3.org/2000/svg" width="22" height="21" viewBox="0 0 22 21">
    <g fill="#172957" fill-rule="nonzero">
        <path d="M4.05 10.5a.45.45 0 0 0 .319-.132C4.519 10.215 8.1 6.607 8.1 4.05a4.05 4.05 0 1 0-8.1 0c0 2.557 3.58 6.165 3.731 6.318a.45.45 0 0 0 .319.131zM2.425 4.05a1.426 1.426 0 1 1 2.85-.002 1.426 1.426 0 0 1-2.85.002zM17.1 8.7a4.505 4.505 0 0 0-4.5 4.5c0 2.85 4.011 6.9 4.181 7.068a.45.45 0 0 0 .638 0c.17-.168 4.181-4.218 4.181-7.069a4.505 4.505 0 0 0-4.5-4.5zm0 6.074a1.575 1.575 0 1 1 0-3.15 1.575 1.575 0 0 1 0 3.15zM4.05 11.85a.9.9 0 0 0-.9.9v1.35a.9.9 0 1 0 1.8 0v-1.35a.9.9 0 0 0-.9-.9zM4.05 16.35a.9.9 0 0 0-.9.9v1.35a.9.9 0 1 0 1.8 0v-1.35a.9.9 0 0 0-.9-.9zM8.55 17.7H7.2a.9.9 0 1 0 0 1.8h1.35a.9.9 0 1 0 0-1.8zM13.05 17.7H11.7a.9.9 0 1 0 0 1.8h1.35a.9.9 0 1 0 0-1.8z"/>
    </g>
</svg>
