<svg xmlns="http://www.w3.org/2000/svg" width="36" height="29" viewBox="0 0 36 29">
    <g fill="#4E515A" fill-rule="nonzero" opacity=".5">
        <path d="M8.25 10.5h-6A2.25 2.25 0 0 0 0 12.75v13.5a2.25 2.25 0 0 0 2.25 2.25h6a.75.75 0 0 0 .75-.75v-16.5a.75.75 0 0 0-.75-.75zM33.75 16.5h-6a.75.75 0 0 0-.75.75v10.5c0 .414.336.75.75.75h6A2.25 2.25 0 0 0 36 26.25v-7.5a2.25 2.25 0 0 0-2.25-2.25zM22.5 0h-9a2.25 2.25 0 0 0-2.25 2.25v25.5c0 .414.336.75.75.75h12a.75.75 0 0 0 .75-.75V2.25A2.25 2.25 0 0 0 22.5 0zm-3 12.375h-3a1.125 1.125 0 0 1 0-2.25.375.375 0 0 0 .375-.375v-3a.375.375 0 0 0-.375-.375 1.125 1.125 0 0 1 0-2.25h.75A1.878 1.878 0 0 1 19.125 6v3.75c0 .207.168.375.375.375a1.125 1.125 0 0 1 0 2.25z"/>
    </g>
</svg>
