<svg xmlns="http://www.w3.org/2000/svg" width="38" height="31" viewBox="0 0 38 31">
    <path fill="#4E515A" fill-opacity=".423" fill-rule="nonzero" d="M32.499 16.833c-.046-.11-5.971-16.67-6.086-16.706.026-.285-3.158 0-3.72 0h-2.18a.427.427 0 0 0-.427.426V5.24a1.28 1.28 0 0 1-1.282 1.278 1.28 1.28 0 0 1-1.282-1.278V.553a.427.427 0 0 0-.428-.426h-4.818a.855.855 0 0 0-.795.54L.059 29.642a.85.85 0 0 0 .797 1.164h16.238c.236 0 .428-.19.428-.426v-4.687a1.28 1.28 0 0 1 1.282-1.278 1.28 1.28 0 0 1 1.282 1.278v4.687c0 .236.191.426.427.426h16.239a.85.85 0 0 0 .797-1.164l-5.05-12.809zM20.086 18.88a1.28 1.28 0 0 1-1.282 1.278 1.28 1.28 0 0 1-1.282-1.278V12.06a1.28 1.28 0 0 1 1.282-1.278 1.28 1.28 0 0 1 1.282 1.278v6.818z"/>
</svg>
