<svg xmlns="http://www.w3.org/2000/svg" width="45" height="53" viewBox="0 0 45 53">
    <g fill="#E27402" fill-rule="nonzero" stroke="#E27402">
        <path d="M44.155 14.24c-.026-1.387-.051-2.699-.051-3.968a1.8 1.8 0 0 0-1.8-1.8c-7.698 0-13.56-2.212-18.445-6.962a1.8 1.8 0 0 0-2.51 0C16.466 6.26 10.606 8.472 2.908 8.472a1.8 1.8 0 0 0-1.8 1.8c0 1.27-.025 2.581-.052 3.97-.246 12.92-.584 30.616 20.96 38.084a1.799 1.799 0 0 0 1.179 0C44.74 44.858 44.402 27.162 44.155 14.24zm-21.55 34.475C4.128 42.003 4.407 27.299 4.655 14.31c.015-.78.03-1.535.04-2.276 7.209-.304 12.974-2.49 17.91-6.789 4.935 4.3 10.702 6.485 17.912 6.789.01.74.024 1.495.04 2.274.247 12.99.526 27.693-17.952 34.406z"/>
        <path d="M28.468 19.527l-8.688 8.687-3.707-3.707a1.8 1.8 0 0 0-2.546 2.546l4.98 4.98c.352.351.812.527 1.273.527.46 0 .921-.176 1.273-.527l9.96-9.96a1.8 1.8 0 1 0-2.545-2.546z"/>
    </g>
</svg>
