<svg xmlns="http://www.w3.org/2000/svg" width="38" height="38" viewBox="0 0 38 38">
    <g fill="#4E515A" fill-rule="nonzero">
        <g opacity=".5">
            <path d="M18.686.2C8.421.2.1 8.521.1 18.786c0 10.265 8.321 18.586 18.586 18.586 10.265 0 18.586-8.321 18.586-18.586C37.26 8.526 28.946.211 18.686.2zm11.348 29.118a24.53 24.53 0 0 0-22.698 0c-5.72-6.159-5.483-15.756.533-21.626 6.016-5.87 15.616-5.87 21.632 0 6.017 5.87 6.253 15.467.533 21.626z"/>
            <path d="M8.231 18.786H5.908c-.641 0-1.162.347-1.162.774 0 .428.52.775 1.162.775h2.323c.642 0 1.162-.347 1.162-.775 0-.427-.52-.774-1.162-.774zM10.167 8.371a1.342 1.342 0 1 0-1.896 1.896l1.896 1.897a1.342 1.342 0 1 0 1.897-1.897l-1.897-1.896zM19.46 9.493c.428 0 .775-.52.775-1.162V6.008c0-.641-.347-1.162-.775-1.162-.427 0-.774.52-.774 1.162v2.323c0 .642.347 1.162.774 1.162zM31.464 18.786H29.14c-.642 0-1.162.347-1.162.774 0 .428.52.775 1.162.775h2.323c.641 0 1.161-.347 1.161-.775 0-.427-.52-.774-1.161-.774z"/>
        </g>
        <path d="M29.3 9.721a.776.776 0 0 0-.95-.117c-1.072.645-10.5 6.332-11.678 7.512a3.724 3.724 0 0 0 0 5.252 3.763 3.763 0 0 0 5.244 0c1.179-1.18 6.856-10.623 7.5-11.694a.78.78 0 0 0-.116-.953z" opacity=".7"/>
    </g>
</svg>
