<?xml version="1.0" encoding="iso-8859-1"?>
<!-- Generator: Adobe Illustrator 19.0.0, SVG Export Plug-In . SVG Version: 6.00 Build 0)  -->
<svg version="1.1" id="Capa_1" xmlns="http://www.w3.org/2000/svg" xmlns:xlink="http://www.w3.org/1999/xlink" x="0px" y="0px"
	 viewBox="0 0 512 512" style="enable-background:new 0 0 512 512;" xml:space="preserve" fill="#000000">
<g>
	<g>
		<path d="M437.365,85.333C443.229,85.302,448,80.531,448,74.667V53.333c0-5.896-4.771-10.667-10.667-10.667h-74.667v-32
			C362.667,4.771,357.896,0,352,0H160c-5.896,0-10.667,4.771-10.667,10.667v32H74.667C68.771,42.667,64,47.438,64,53.333v21.333
			c0,5.865,4.771,10.635,10.635,10.667c3.052,0.021,74.698,1.25,74.698,74.667v32H74.667C68.771,192,64,196.771,64,202.667V224
			c0,5.865,4.771,10.635,10.635,10.667c3.052,0.021,74.698,1.25,74.698,74.667v32H74.667C68.771,341.333,64,346.104,64,352v21.333
			c0,5.865,4.771,10.635,10.635,10.667c3.052,0.021,74.698,1.25,74.698,74.667v42.667c0,5.896,4.771,10.667,10.667,10.667h192
			c5.896,0,10.667-4.771,10.667-10.667v-42.667c0-73.417,71.646-74.646,74.698-74.667c5.865-0.031,10.635-4.802,10.635-10.667V352
			c0-5.896-4.771-10.667-10.667-10.667h-74.667v-32c0-73.417,71.646-74.646,74.698-74.667C443.229,234.635,448,229.865,448,224
			v-21.333c0-5.896-4.771-10.667-10.667-10.667h-74.667v-32C362.667,86.583,434.313,85.354,437.365,85.333z M256,469.333
			c-35.292,0-64-28.708-64-64c0-35.292,28.708-64,64-64s64,28.708,64,64C320,440.625,291.292,469.333,256,469.333z M256,320
			c-35.292,0-64-28.708-64-64s28.708-64,64-64s64,28.708,64,64S291.292,320,256,320z M256,170.667c-35.292,0-64-28.708-64-64
			c0-35.292,28.708-64,64-64s64,28.708,64,64C320,141.958,291.292,170.667,256,170.667z"/>
	</g>
</g>
<g>
</g>
<g>
</g>
<g>
</g>
<g>
</g>
<g>
</g>
<g>
</g>
<g>
</g>
<g>
</g>
<g>
</g>
<g>
</g>
<g>
</g>
<g>
</g>
<g>
</g>
<g>
</g>
<g>
</g>
</svg>
