<svg xmlns="http://www.w3.org/2000/svg" width="32" height="37" viewBox="0 0 32 37">
    <g fill="#4E515A" fill-rule="nonzero">
        <path d="M25.028 13.607a75.688 75.688 0 0 1-.93-1.517H2.165A2.168 2.168 0 0 0 0 14.256v2.6c0 1.195.972 2.167 2.166 2.167h12.821c.125 0 .226.101.226.225v3.59a2.259 2.259 0 0 0 2.256 2.255h5.799c.265 0 .482.216.482.481v8.199a.482.482 0 0 1-.482.481H10.816c-.41.701-.827 1.39-1.23 2.027-.102.16-.227.3-.364.422h14.046a2.934 2.934 0 0 0 2.93-2.93v-8.199a2.933 2.933 0 0 0-2.93-2.93H17.66v-3.396c0-1.474-1.2-2.674-2.674-2.674H2.448v-2.036h24.265a1.99 1.99 0 0 1-1.685-.93z" opacity=".489"/>
        <path d="M7.898 22.674a4.58 4.58 0 0 0-4.58 4.58c0 1.928 2.663 6.372 3.927 8.374a.773.773 0 0 0 1.306 0c1.266-2.004 3.927-6.446 3.927-8.374a4.58 4.58 0 0 0-4.58-4.58zm0 6.84a2.054 2.054 0 1 1 0-4.108 2.054 2.054 0 0 1 0 4.108zM26.716 0a4.58 4.58 0 0 0-4.58 4.58c0 1.928 2.66 6.37 3.927 8.373a.773.773 0 0 0 1.305 0c1.265-2.001 3.927-6.445 3.927-8.373A4.58 4.58 0 0 0 26.715 0zm0 6.84a2.054 2.054 0 1 1 0-4.108 2.054 2.054 0 0 1 0 4.108z" opacity=".704"/>
    </g>
</svg>
