<svg xmlns="http://www.w3.org/2000/svg" width="18" height="15" viewBox="0 0 18 15">
    <path fill="#FFF" fill-rule="nonzero" d="M18 8.332c0-.356-.08-.696-.225-1.007a3.3 3.3 0 0 0-.053-.238L16.16 3.19l-.01-.036C15.6 1.516 14.822 0 12.848 0H5.302C3.28 0 2.565 1.554 2.006 3.145L.371 7.052C.134 7.433 0 7.869 0 8.332v1.213c0 .187.022.37.064.547a.958.958 0 0 0-.064.343v3.607c0 .53.426.958.952.958h1.976a.955.955 0 0 0 .952-.958V12.24h10.353v1.803c0 .53.426.958.952.958h1.863a.955.955 0 0 0 .952-.958v-3.607a.964.964 0 0 0-.064-.343c.042-.177.064-.36.064-.547V8.332zM3.167 3.537C3.789 1.77 4.29 1.23 5.302 1.23h7.547c1.005 0 1.564.601 2.133 2.298l1.14 2.326a3.474 3.474 0 0 0-1.212-.216H3.09a3.49 3.49 0 0 0-1.1.176l1.177-2.278zm.98 6.469H2.062a.682.682 0 0 1-.68-.684c0-.378.305-.684.68-.684h2.085c.375 0 .68.306.68.684a.682.682 0 0 1-.68.684zm7.365-.137h-4.85a.432.432 0 0 1-.43-.433c0-.24.192-.434.43-.434h4.85c.238 0 .43.194.43.434a.432.432 0 0 1-.43.433zm4.373.137H13.8a.682.682 0 0 1-.68-.684c0-.378.305-.684.68-.684h2.085c.376 0 .68.306.68.684a.682.682 0 0 1-.68.684z" opacity=".7"/>
</svg>
